<mxfile host="app.diagrams.net" modified="2023-06-09T02:16:47.142Z" agent="Mozilla/5.0 (Windows NT 10.0; Win64; x64) AppleWebKit/537.36 (KHTML, like Gecko) Chrome/114.0.0.0 Safari/537.36" etag="7z4c4Fn1YEEVF98L4_2S" version="21.3.5" type="github">
  <diagram name="Trang-1" id="Qr2KPcSAwDpYmeBFXrQJ">
    <mxGraphModel dx="1613" dy="738" grid="1" gridSize="10" guides="1" tooltips="1" connect="1" arrows="1" fold="1" page="1" pageScale="1" pageWidth="1169" pageHeight="827" math="0" shadow="0">
      <root>
        <mxCell id="0" />
        <mxCell id="1" parent="0" />
        <mxCell id="hMrHZIxzftzY6whSMFzs-7" style="edgeStyle=orthogonalEdgeStyle;rounded=0;orthogonalLoop=1;jettySize=auto;html=1;exitX=0.5;exitY=1;exitDx=0;exitDy=0;entryX=0.5;entryY=0;entryDx=0;entryDy=0;" edge="1" parent="1" source="hMrHZIxzftzY6whSMFzs-1" target="hMrHZIxzftzY6whSMFzs-2">
          <mxGeometry relative="1" as="geometry" />
        </mxCell>
        <mxCell id="hMrHZIxzftzY6whSMFzs-46" style="edgeStyle=orthogonalEdgeStyle;rounded=0;orthogonalLoop=1;jettySize=auto;html=1;exitX=0;exitY=0.5;exitDx=0;exitDy=0;entryX=0;entryY=0.5;entryDx=0;entryDy=0;" edge="1" parent="1" source="hMrHZIxzftzY6whSMFzs-1" target="hMrHZIxzftzY6whSMFzs-31">
          <mxGeometry relative="1" as="geometry">
            <mxPoint x="120" y="590" as="targetPoint" />
          </mxGeometry>
        </mxCell>
        <mxCell id="hMrHZIxzftzY6whSMFzs-1" value="1" style="ellipse;whiteSpace=wrap;html=1;aspect=fixed;" vertex="1" parent="1">
          <mxGeometry x="300" y="60" width="50" height="50" as="geometry" />
        </mxCell>
        <mxCell id="hMrHZIxzftzY6whSMFzs-15" style="edgeStyle=orthogonalEdgeStyle;rounded=0;orthogonalLoop=1;jettySize=auto;html=1;exitX=0;exitY=1;exitDx=0;exitDy=0;entryX=0.5;entryY=0;entryDx=0;entryDy=0;" edge="1" parent="1" source="hMrHZIxzftzY6whSMFzs-2" target="hMrHZIxzftzY6whSMFzs-5">
          <mxGeometry relative="1" as="geometry" />
        </mxCell>
        <mxCell id="hMrHZIxzftzY6whSMFzs-2" value="2" style="ellipse;whiteSpace=wrap;html=1;aspect=fixed;" vertex="1" parent="1">
          <mxGeometry x="300" y="180" width="50" height="50" as="geometry" />
        </mxCell>
        <mxCell id="hMrHZIxzftzY6whSMFzs-4" value="&lt;font style=&quot;font-size: 14px;&quot;&gt;Yes&lt;/font&gt;" style="text;html=1;strokeColor=none;fillColor=none;align=center;verticalAlign=middle;whiteSpace=wrap;rounded=0;" vertex="1" parent="1">
          <mxGeometry x="325" y="140" width="60" height="30" as="geometry" />
        </mxCell>
        <mxCell id="hMrHZIxzftzY6whSMFzs-17" style="edgeStyle=orthogonalEdgeStyle;rounded=0;orthogonalLoop=1;jettySize=auto;html=1;exitX=1;exitY=0.5;exitDx=0;exitDy=0;entryX=0.5;entryY=0;entryDx=0;entryDy=0;" edge="1" parent="1" source="hMrHZIxzftzY6whSMFzs-5" target="hMrHZIxzftzY6whSMFzs-10">
          <mxGeometry relative="1" as="geometry" />
        </mxCell>
        <mxCell id="hMrHZIxzftzY6whSMFzs-19" style="edgeStyle=orthogonalEdgeStyle;rounded=0;orthogonalLoop=1;jettySize=auto;html=1;exitX=0.5;exitY=1;exitDx=0;exitDy=0;entryX=0.5;entryY=0;entryDx=0;entryDy=0;" edge="1" parent="1" source="hMrHZIxzftzY6whSMFzs-5" target="hMrHZIxzftzY6whSMFzs-8">
          <mxGeometry relative="1" as="geometry" />
        </mxCell>
        <mxCell id="hMrHZIxzftzY6whSMFzs-22" style="edgeStyle=orthogonalEdgeStyle;rounded=0;orthogonalLoop=1;jettySize=auto;html=1;exitX=1;exitY=0.5;exitDx=0;exitDy=0;entryX=0.5;entryY=0;entryDx=0;entryDy=0;" edge="1" parent="1" source="hMrHZIxzftzY6whSMFzs-5" target="hMrHZIxzftzY6whSMFzs-12">
          <mxGeometry relative="1" as="geometry" />
        </mxCell>
        <mxCell id="hMrHZIxzftzY6whSMFzs-27" style="edgeStyle=orthogonalEdgeStyle;rounded=0;orthogonalLoop=1;jettySize=auto;html=1;exitX=1;exitY=0.5;exitDx=0;exitDy=0;entryX=0.5;entryY=0;entryDx=0;entryDy=0;" edge="1" parent="1" source="hMrHZIxzftzY6whSMFzs-5" target="hMrHZIxzftzY6whSMFzs-23">
          <mxGeometry relative="1" as="geometry" />
        </mxCell>
        <mxCell id="hMrHZIxzftzY6whSMFzs-30" style="edgeStyle=orthogonalEdgeStyle;rounded=0;orthogonalLoop=1;jettySize=auto;html=1;exitX=1;exitY=0.5;exitDx=0;exitDy=0;entryX=0.5;entryY=0;entryDx=0;entryDy=0;" edge="1" parent="1" source="hMrHZIxzftzY6whSMFzs-5" target="hMrHZIxzftzY6whSMFzs-26">
          <mxGeometry relative="1" as="geometry" />
        </mxCell>
        <mxCell id="hMrHZIxzftzY6whSMFzs-5" value="3" style="ellipse;whiteSpace=wrap;html=1;aspect=fixed;" vertex="1" parent="1">
          <mxGeometry x="230" y="260" width="50" height="50" as="geometry" />
        </mxCell>
        <mxCell id="hMrHZIxzftzY6whSMFzs-32" style="edgeStyle=orthogonalEdgeStyle;rounded=0;orthogonalLoop=1;jettySize=auto;html=1;exitX=0.5;exitY=1;exitDx=0;exitDy=0;entryX=0.5;entryY=0;entryDx=0;entryDy=0;" edge="1" parent="1" source="hMrHZIxzftzY6whSMFzs-8" target="hMrHZIxzftzY6whSMFzs-31">
          <mxGeometry relative="1" as="geometry" />
        </mxCell>
        <mxCell id="hMrHZIxzftzY6whSMFzs-8" value="4" style="ellipse;whiteSpace=wrap;html=1;aspect=fixed;" vertex="1" parent="1">
          <mxGeometry x="230" y="380" width="50" height="50" as="geometry" />
        </mxCell>
        <mxCell id="hMrHZIxzftzY6whSMFzs-36" style="edgeStyle=orthogonalEdgeStyle;rounded=0;orthogonalLoop=1;jettySize=auto;html=1;exitX=0.5;exitY=1;exitDx=0;exitDy=0;entryX=1;entryY=0.5;entryDx=0;entryDy=0;" edge="1" parent="1" source="hMrHZIxzftzY6whSMFzs-9" target="hMrHZIxzftzY6whSMFzs-31">
          <mxGeometry relative="1" as="geometry" />
        </mxCell>
        <mxCell id="hMrHZIxzftzY6whSMFzs-9" value="8" style="ellipse;whiteSpace=wrap;html=1;aspect=fixed;" vertex="1" parent="1">
          <mxGeometry x="420" y="480" width="50" height="50" as="geometry" />
        </mxCell>
        <mxCell id="hMrHZIxzftzY6whSMFzs-20" style="edgeStyle=orthogonalEdgeStyle;rounded=0;orthogonalLoop=1;jettySize=auto;html=1;exitX=0.5;exitY=1;exitDx=0;exitDy=0;entryX=0.5;entryY=0;entryDx=0;entryDy=0;" edge="1" parent="1" source="hMrHZIxzftzY6whSMFzs-10" target="hMrHZIxzftzY6whSMFzs-11">
          <mxGeometry relative="1" as="geometry" />
        </mxCell>
        <mxCell id="hMrHZIxzftzY6whSMFzs-10" value="5" style="ellipse;whiteSpace=wrap;html=1;aspect=fixed;" vertex="1" parent="1">
          <mxGeometry x="330" y="380" width="50" height="50" as="geometry" />
        </mxCell>
        <mxCell id="hMrHZIxzftzY6whSMFzs-35" style="edgeStyle=orthogonalEdgeStyle;rounded=0;orthogonalLoop=1;jettySize=auto;html=1;exitX=0.5;exitY=1;exitDx=0;exitDy=0;entryX=1;entryY=0.5;entryDx=0;entryDy=0;" edge="1" parent="1" source="hMrHZIxzftzY6whSMFzs-11" target="hMrHZIxzftzY6whSMFzs-31">
          <mxGeometry relative="1" as="geometry" />
        </mxCell>
        <mxCell id="hMrHZIxzftzY6whSMFzs-11" value="6" style="ellipse;whiteSpace=wrap;html=1;aspect=fixed;" vertex="1" parent="1">
          <mxGeometry x="330" y="480" width="50" height="50" as="geometry" />
        </mxCell>
        <mxCell id="hMrHZIxzftzY6whSMFzs-21" style="edgeStyle=orthogonalEdgeStyle;rounded=0;orthogonalLoop=1;jettySize=auto;html=1;exitX=0.5;exitY=1;exitDx=0;exitDy=0;entryX=0.5;entryY=0;entryDx=0;entryDy=0;" edge="1" parent="1" source="hMrHZIxzftzY6whSMFzs-12" target="hMrHZIxzftzY6whSMFzs-9">
          <mxGeometry relative="1" as="geometry" />
        </mxCell>
        <mxCell id="hMrHZIxzftzY6whSMFzs-12" value="7" style="ellipse;whiteSpace=wrap;html=1;aspect=fixed;" vertex="1" parent="1">
          <mxGeometry x="420" y="380" width="50" height="50" as="geometry" />
        </mxCell>
        <mxCell id="hMrHZIxzftzY6whSMFzs-28" style="edgeStyle=orthogonalEdgeStyle;rounded=0;orthogonalLoop=1;jettySize=auto;html=1;exitX=0.5;exitY=1;exitDx=0;exitDy=0;entryX=0.5;entryY=0;entryDx=0;entryDy=0;" edge="1" parent="1" source="hMrHZIxzftzY6whSMFzs-23" target="hMrHZIxzftzY6whSMFzs-24">
          <mxGeometry relative="1" as="geometry" />
        </mxCell>
        <mxCell id="hMrHZIxzftzY6whSMFzs-23" value="9" style="ellipse;whiteSpace=wrap;html=1;aspect=fixed;" vertex="1" parent="1">
          <mxGeometry x="500" y="380" width="50" height="50" as="geometry" />
        </mxCell>
        <mxCell id="hMrHZIxzftzY6whSMFzs-37" style="edgeStyle=orthogonalEdgeStyle;rounded=0;orthogonalLoop=1;jettySize=auto;html=1;exitX=0.5;exitY=1;exitDx=0;exitDy=0;entryX=1;entryY=0.5;entryDx=0;entryDy=0;" edge="1" parent="1" source="hMrHZIxzftzY6whSMFzs-24" target="hMrHZIxzftzY6whSMFzs-31">
          <mxGeometry relative="1" as="geometry" />
        </mxCell>
        <mxCell id="hMrHZIxzftzY6whSMFzs-24" value="10" style="ellipse;whiteSpace=wrap;html=1;aspect=fixed;" vertex="1" parent="1">
          <mxGeometry x="500" y="480" width="50" height="50" as="geometry" />
        </mxCell>
        <mxCell id="hMrHZIxzftzY6whSMFzs-38" style="edgeStyle=orthogonalEdgeStyle;rounded=0;orthogonalLoop=1;jettySize=auto;html=1;exitX=0.5;exitY=1;exitDx=0;exitDy=0;entryX=1;entryY=0.5;entryDx=0;entryDy=0;" edge="1" parent="1" source="hMrHZIxzftzY6whSMFzs-25" target="hMrHZIxzftzY6whSMFzs-31">
          <mxGeometry relative="1" as="geometry" />
        </mxCell>
        <mxCell id="hMrHZIxzftzY6whSMFzs-25" value="12" style="ellipse;whiteSpace=wrap;html=1;aspect=fixed;" vertex="1" parent="1">
          <mxGeometry x="580" y="480" width="50" height="50" as="geometry" />
        </mxCell>
        <mxCell id="hMrHZIxzftzY6whSMFzs-29" style="edgeStyle=orthogonalEdgeStyle;rounded=0;orthogonalLoop=1;jettySize=auto;html=1;exitX=0.5;exitY=1;exitDx=0;exitDy=0;entryX=0.5;entryY=0;entryDx=0;entryDy=0;" edge="1" parent="1" source="hMrHZIxzftzY6whSMFzs-26" target="hMrHZIxzftzY6whSMFzs-25">
          <mxGeometry relative="1" as="geometry" />
        </mxCell>
        <mxCell id="hMrHZIxzftzY6whSMFzs-34" style="edgeStyle=orthogonalEdgeStyle;rounded=0;orthogonalLoop=1;jettySize=auto;html=1;exitX=1;exitY=0.5;exitDx=0;exitDy=0;entryX=0.5;entryY=0;entryDx=0;entryDy=0;" edge="1" parent="1" source="hMrHZIxzftzY6whSMFzs-26" target="hMrHZIxzftzY6whSMFzs-33">
          <mxGeometry relative="1" as="geometry" />
        </mxCell>
        <mxCell id="hMrHZIxzftzY6whSMFzs-26" value="11" style="ellipse;whiteSpace=wrap;html=1;aspect=fixed;" vertex="1" parent="1">
          <mxGeometry x="580" y="380" width="50" height="50" as="geometry" />
        </mxCell>
        <mxCell id="hMrHZIxzftzY6whSMFzs-31" value="14" style="ellipse;whiteSpace=wrap;html=1;aspect=fixed;" vertex="1" parent="1">
          <mxGeometry x="230" y="580" width="50" height="50" as="geometry" />
        </mxCell>
        <mxCell id="hMrHZIxzftzY6whSMFzs-39" style="edgeStyle=orthogonalEdgeStyle;rounded=0;orthogonalLoop=1;jettySize=auto;html=1;exitX=0.5;exitY=1;exitDx=0;exitDy=0;entryX=1;entryY=0.5;entryDx=0;entryDy=0;" edge="1" parent="1" source="hMrHZIxzftzY6whSMFzs-33" target="hMrHZIxzftzY6whSMFzs-31">
          <mxGeometry relative="1" as="geometry" />
        </mxCell>
        <mxCell id="hMrHZIxzftzY6whSMFzs-33" value="13" style="ellipse;whiteSpace=wrap;html=1;aspect=fixed;" vertex="1" parent="1">
          <mxGeometry x="660" y="480" width="50" height="50" as="geometry" />
        </mxCell>
        <mxCell id="hMrHZIxzftzY6whSMFzs-43" value="&lt;font style=&quot;font-size: 14px;&quot;&gt;!&quot;Yes&quot;&lt;/font&gt;" style="text;html=1;align=center;verticalAlign=middle;resizable=0;points=[];autosize=1;strokeColor=none;fillColor=none;" vertex="1" parent="1">
          <mxGeometry x="150" y="150" width="60" height="30" as="geometry" />
        </mxCell>
      </root>
    </mxGraphModel>
  </diagram>
</mxfile>
